<svg data-v-fde0c5aa="" xmlns="http://www.w3.org/2000/svg" viewBox="0 0 300 300" class="iconLeftSlogan"><!----><defs data-v-fde0c5aa=""><!----></defs><rect data-v-fde0c5aa="" fill="#3E214F" x="0" y="0" width="300px" height="300px" class="logo-background-square"></rect><defs data-v-fde0c5aa=""><!----></defs><g data-v-fde0c5aa="" id="c4efc110-a919-4879-96d2-1a150452d554" fill="#FFFFFF" transform="matrix(1.506539434661446,0,0,1.506539434661446,92.00578118990379,122.0194519335205)"><path d="M6.66 4.83L6.66 4.83Q7.20 4.83 7.77 5.03Q8.34 5.22 8.78 5.53L8.78 5.53Q8.64 6.24 8.52 6.82Q8.40 7.39 8.30 7.86Q8.20 8.33 8.11 8.71Q8.02 9.10 7.94 9.44L7.94 9.44Q7.60 10.70 7.25 11.71Q6.89 12.73 6.49 13.54Q6.09 14.35 5.65 14.98Q5.21 15.61 4.70 16.09L4.70 16.09Q4.21 16.55 3.72 16.84Q3.23 17.14 2.81 17.22L2.81 17.22Q2.25 17.22 1.78 17.09Q1.30 16.97 0.96 16.75Q0.62 16.53 0.43 16.23Q0.24 15.93 0.24 15.57L0.24 15.57Q0.24 15.18 0.43 14.58Q0.63 13.99 1.04 13.17L1.04 13.17Q1.20 13.19 1.43 13.26Q1.65 13.33 1.88 13.43Q2.10 13.52 2.28 13.64Q2.46 13.76 2.55 13.87L2.55 13.87Q2.10 14.34 1.82 14.89Q1.54 15.44 1.54 15.85L1.54 15.85Q1.54 16.09 1.63 16.27Q1.72 16.46 1.95 16.62L1.95 16.62Q2.80 16.30 3.61 15.42Q4.42 14.55 5.05 13.24L5.05 13.24Q5.43 12.47 5.74 11.48Q6.05 10.49 6.27 9.48Q6.48 8.48 6.60 7.57Q6.72 6.65 6.72 6.02L6.72 6.02Q6.72 5.92 6.71 5.75Q6.71 5.57 6.70 5.38Q6.69 5.19 6.68 5.04Q6.66 4.89 6.66 4.83ZM13.17 9.52L13.17 9.52Q13.31 9.52 13.50 9.57Q13.69 9.62 13.85 9.70Q14 9.77 14.11 9.86Q14.21 9.94 14.21 10.01L14.21 10.01Q13.93 10.60 13.69 11.19Q13.45 11.79 13.29 12.33Q13.12 12.88 13.03 13.36Q12.94 13.83 12.94 14.18L12.94 14.18Q12.94 14.57 13.02 14.83Q13.10 15.09 13.30 15.20L13.30 15.20Q13.13 15.32 12.87 15.39Q12.60 15.46 12.39 15.46L12.39 15.46Q11.63 15.46 11.63 14.42L11.63 14.42Q11.63 13.62 12.17 12.24L12.17 12.24Q11.89 12.88 11.52 13.45Q11.16 14.01 10.78 14.45Q10.40 14.88 10.02 15.15Q9.63 15.43 9.31 15.48L9.31 15.48Q8.79 15.46 8.47 14.99Q8.15 14.52 8.15 13.79L8.15 13.79Q8.15 13.01 8.48 12.14Q8.82 11.27 9.34 10.53Q9.87 9.79 10.49 9.29Q11.10 8.79 11.68 8.76L11.68 8.76Q11.82 8.81 11.99 8.93Q12.17 9.06 12.33 9.23Q12.49 9.39 12.60 9.57Q12.71 9.74 12.73 9.87L12.73 9.87Q12.17 9.95 11.57 10.42Q10.98 10.88 10.49 11.53Q10.01 12.18 9.70 12.92Q9.39 13.66 9.39 14.31L9.39 14.31Q9.39 14.57 9.59 14.64L9.59 14.64Q10.00 14.56 10.53 13.95Q11.06 13.34 11.82 12.07L11.82 12.07Q11.96 11.82 12.13 11.51Q12.31 11.20 12.49 10.86Q12.67 10.53 12.84 10.18Q13.02 9.84 13.17 9.52ZM17.19 8.39L17.19 8.39Q17.56 8.50 17.88 8.88Q18.20 9.27 18.35 9.73L18.35 9.73Q18.20 10.11 17.88 10.64Q17.56 11.17 17.23 11.72Q16.91 12.28 16.65 12.78Q16.39 13.27 16.35 13.59L16.35 13.59Q16.58 13.36 16.85 13.04Q17.12 12.73 17.38 12.41Q17.64 12.10 17.86 11.84Q18.09 11.58 18.21 11.45L18.21 11.45Q18.48 11.17 18.84 10.80Q19.21 10.43 19.61 10.10Q20.01 9.77 20.41 9.54Q20.82 9.31 21.15 9.31L21.15 9.31Q21.52 9.31 21.76 9.55Q22.01 9.80 22.15 10.07L22.15 10.07Q22.15 10.09 22.04 10.14Q21.94 10.19 21.74 10.42L21.74 10.42Q21.55 10.67 21.30 11.11Q21.06 11.55 20.82 12.06Q20.59 12.57 20.44 13.10Q20.29 13.64 20.29 14.07L20.29 14.07Q20.29 14.42 20.38 14.52Q20.47 14.62 20.64 14.62L20.64 14.62Q20.79 14.62 20.96 14.55Q21.13 14.48 21.22 14.48L21.22 14.48Q21.28 14.50 21.31 14.60Q21.35 14.69 21.35 14.76L21.35 14.76Q21.24 14.85 21.08 14.95Q20.93 15.05 20.76 15.13Q20.59 15.22 20.43 15.27Q20.27 15.33 20.15 15.33L20.15 15.33Q19.74 15.33 19.48 15.21Q19.22 15.09 19.07 14.90Q18.93 14.70 18.87 14.43Q18.82 14.15 18.82 13.85L18.82 13.85Q18.82 13.68 18.84 13.47Q18.87 13.26 18.96 12.97Q19.04 12.68 19.19 12.29Q19.35 11.89 19.59 11.33L19.59 11.33Q19.56 11.33 19.21 11.52Q18.86 11.72 18.45 12.12L18.45 12.12Q17.79 12.75 17.27 13.37Q16.74 13.99 16.20 14.74L16.20 14.74Q15.89 15.18 15.66 15.48Q15.43 15.78 15.26 15.88L15.26 15.88Q14.97 15.71 14.83 15.41Q14.69 15.11 14.62 14.78L14.62 14.78Q14.62 14.52 14.69 14.11Q14.77 13.71 14.90 13.21Q15.04 12.71 15.23 12.17Q15.43 11.62 15.67 11.07L15.67 11.07Q16.20 9.84 16.64 9.14Q17.08 8.44 17.19 8.39ZM27.31 9.52L27.31 9.52Q27.45 9.52 27.64 9.57Q27.83 9.62 27.99 9.70Q28.14 9.77 28.24 9.86Q28.35 9.94 28.35 10.01L28.35 10.01Q28.07 10.60 27.83 11.19Q27.59 11.79 27.43 12.33Q27.26 12.88 27.17 13.36Q27.08 13.83 27.08 14.18L27.08 14.18Q27.08 14.57 27.16 14.83Q27.24 15.09 27.44 15.20L27.44 15.20Q27.27 15.32 27.01 15.39Q26.74 15.46 26.53 15.46L26.53 15.46Q25.77 15.46 25.77 14.42L25.77 14.42Q25.77 13.62 26.31 12.24L26.31 12.24Q26.03 12.88 25.66 13.45Q25.30 14.01 24.92 14.45Q24.54 14.88 24.16 15.15Q23.77 15.43 23.45 15.48L23.45 15.48Q22.93 15.46 22.61 14.99Q22.29 14.52 22.29 13.79L22.29 13.79Q22.29 13.01 22.62 12.14Q22.96 11.27 23.48 10.53Q24.01 9.79 24.63 9.29Q25.24 8.79 25.82 8.76L25.82 8.76Q25.96 8.81 26.13 8.93Q26.31 9.06 26.47 9.23Q26.63 9.39 26.74 9.57Q26.85 9.74 26.87 9.87L26.87 9.87Q26.31 9.95 25.71 10.42Q25.12 10.88 24.63 11.53Q24.15 12.18 23.84 12.92Q23.53 13.66 23.53 14.31L23.53 14.31Q23.53 14.57 23.73 14.64L23.73 14.64Q24.14 14.56 24.67 13.95Q25.20 13.34 25.96 12.07L25.96 12.07Q26.10 11.82 26.27 11.51Q26.45 11.20 26.63 10.86Q26.81 10.53 26.98 10.18Q27.16 9.84 27.31 9.52ZM28.73 14.90L28.73 14.90Q28.80 14.49 28.97 13.82Q29.15 13.16 29.39 12.41Q29.62 11.66 29.89 10.91Q30.16 10.15 30.41 9.55L30.41 9.55Q30.59 9.11 30.73 8.87Q30.87 8.62 31.04 8.46L31.04 8.46Q31.23 8.48 31.44 8.55Q31.65 8.62 31.85 8.72Q32.05 8.82 32.20 8.93Q32.35 9.03 32.44 9.13L32.44 9.13Q32.06 9.58 31.77 10.15Q31.49 10.72 31.19 11.62L31.19 11.62Q31.95 10.95 32.53 10.33Q33.11 9.72 33.61 8.96L33.61 8.96Q33.70 8.89 33.91 8.89L33.91 8.89Q34.10 8.89 34.29 8.95Q34.47 9.02 34.54 9.13L34.54 9.13Q34.29 9.80 34.29 10.46L34.29 10.46Q34.29 11.07 34.47 11.38L34.47 11.38Q34.45 11.47 34.28 11.70Q34.10 11.94 33.89 12.15L33.89 12.15Q33.52 11.96 33.22 11.61Q32.93 11.27 32.79 10.86L32.79 10.86Q32.13 11.33 31.67 11.77Q31.21 12.21 30.88 12.75Q30.55 13.29 30.32 13.99Q30.09 14.69 29.88 15.65L29.88 15.65Q29.75 15.64 29.57 15.56Q29.40 15.48 29.22 15.37Q29.05 15.26 28.91 15.13Q28.77 15.01 28.73 14.90ZM38.51 14.38L38.51 14.38Q38.51 13.87 38.67 13.07Q38.84 12.26 39.09 11.33Q39.35 10.40 39.69 9.43Q40.03 8.46 40.38 7.60Q40.73 6.75 41.06 6.10Q41.40 5.46 41.66 5.18L41.66 5.18Q41.80 5.19 42.03 5.29Q42.27 5.38 42.50 5.50Q42.74 5.63 42.94 5.78Q43.13 5.92 43.19 6.05L43.19 6.05Q42.78 6.41 42.38 7.15Q41.99 7.88 41.62 8.82Q41.24 9.76 40.92 10.80Q40.60 11.84 40.36 12.82Q40.12 13.80 39.99 14.64Q39.86 15.48 39.86 16.00L39.86 16.00Q39.86 16.24 39.90 16.30L39.90 16.30Q39.59 16.28 39.45 16.19Q39.31 16.10 39.23 16.00Q39.16 15.89 39.09 15.79Q39.03 15.68 38.91 15.62L38.91 15.62Q38.81 15.58 38.74 15.43Q38.67 15.27 38.62 15.09Q38.57 14.90 38.54 14.70Q38.51 14.50 38.51 14.38ZM42.14 12.71L42.14 12.71Q42.14 11.91 42.47 11.16Q42.80 10.42 43.34 9.84Q43.88 9.25 44.57 8.90Q45.26 8.54 46.00 8.54L46.00 8.54Q46.73 8.54 47.12 8.90Q47.52 9.27 47.52 9.94L47.52 9.94Q47.52 10.26 47.42 10.56Q47.33 10.86 47.19 11.10Q47.04 11.34 46.84 11.49Q46.65 11.63 46.45 11.63L46.45 11.63Q46.28 11.63 46.11 11.53Q45.93 11.42 45.82 11.26L45.82 11.26Q46.76 10.40 46.76 9.70L46.76 9.70Q46.76 9.30 46.44 9.30L46.44 9.30Q46.16 9.30 45.74 9.56Q45.32 9.83 44.93 10.26L44.93 10.26Q44.32 10.93 44.01 11.75Q43.69 12.57 43.69 13.47L43.69 13.47Q43.69 14.60 44.20 14.83L44.20 14.83Q44.41 14.80 44.69 14.70Q44.97 14.60 45.29 14.44Q45.61 14.28 45.95 14.07Q46.30 13.86 46.62 13.62L46.62 13.62Q46.68 13.66 46.72 13.75Q46.76 13.83 46.76 13.90L46.76 13.90Q46.52 14.20 46.21 14.48Q45.91 14.76 45.57 14.99Q45.23 15.22 44.92 15.38Q44.60 15.54 44.37 15.58L44.37 15.58Q43.90 15.54 43.50 15.29Q43.09 15.05 42.79 14.66Q42.49 14.27 42.31 13.76Q42.14 13.26 42.14 12.71ZM48.02 12.71L48.02 12.71Q48.02 11.91 48.35 11.16Q48.68 10.42 49.22 9.84Q49.76 9.25 50.45 8.90Q51.14 8.54 51.88 8.54L51.88 8.54Q52.61 8.54 53.00 8.90Q53.40 9.27 53.40 9.94L53.40 9.94Q53.40 10.26 53.31 10.56Q53.21 10.86 53.07 11.10Q52.92 11.34 52.72 11.49Q52.53 11.63 52.33 11.63L52.33 11.63Q52.16 11.63 51.99 11.53Q51.81 11.42 51.70 11.26L51.70 11.26Q52.64 10.40 52.64 9.70L52.64 9.70Q52.64 9.30 52.32 9.30L52.32 9.30Q52.04 9.30 51.62 9.56Q51.20 9.83 50.81 10.26L50.81 10.26Q50.20 10.93 49.89 11.75Q49.57 12.57 49.57 13.47L49.57 13.47Q49.57 14.60 50.08 14.83L50.08 14.83Q50.29 14.80 50.57 14.70Q50.85 14.60 51.17 14.44Q51.49 14.28 51.84 14.07Q52.18 13.86 52.50 13.62L52.50 13.62Q52.56 13.66 52.60 13.75Q52.64 13.83 52.64 13.90L52.64 13.90Q52.40 14.20 52.09 14.48Q51.79 14.76 51.45 14.99Q51.11 15.22 50.80 15.38Q50.48 15.54 50.25 15.58L50.25 15.58Q49.78 15.54 49.38 15.29Q48.97 15.05 48.67 14.66Q48.37 14.27 48.20 13.76Q48.02 13.26 48.02 12.71ZM53.80 14.94L53.80 14.94Q53.80 14.45 53.90 13.78Q54.00 13.12 54.19 12.36Q54.38 11.61 54.64 10.78Q54.89 9.95 55.22 9.13L55.22 9.13Q55.50 8.39 55.87 7.63Q56.24 6.87 56.67 6.15Q57.11 5.42 57.58 4.76Q58.04 4.10 58.52 3.56L58.52 3.56Q58.74 3.56 59.00 3.61Q59.26 3.67 59.51 3.76Q59.75 3.85 59.96 3.98Q60.16 4.10 60.28 4.23L60.28 4.23Q59.23 5.31 58.39 6.40Q57.55 7.50 57.06 8.47L57.06 8.47Q56.80 9.00 56.58 9.46Q56.36 9.93 56.18 10.38Q56.00 10.84 55.85 11.29Q55.71 11.75 55.58 12.25L55.58 12.25Q58.27 8.82 59.57 8.82L59.57 8.82Q59.93 8.82 60.35 9.06Q60.77 9.30 61.10 9.70L61.10 9.70Q60.66 10.18 60.20 10.85Q59.74 11.52 59.35 12.20Q58.97 12.88 58.72 13.46Q58.48 14.04 58.48 14.32L58.48 14.32Q58.48 14.46 58.52 14.51Q58.56 14.56 58.70 14.56L58.70 14.56Q58.91 14.56 59.04 14.50Q59.16 14.45 59.19 14.45L59.19 14.45Q59.26 14.56 59.28 14.60Q59.29 14.64 59.29 14.67L59.29 14.67Q59.29 14.73 59.12 14.83Q58.95 14.94 58.72 15.04Q58.49 15.15 58.27 15.23Q58.04 15.32 57.93 15.32L57.93 15.32Q57.79 15.32 57.65 15.24Q57.51 15.16 57.41 15.04Q57.30 14.91 57.24 14.76Q57.18 14.60 57.18 14.43L57.18 14.43Q57.18 14.22 57.30 13.81Q57.41 13.40 57.62 12.85Q57.83 12.29 58.13 11.63Q58.42 10.98 58.76 10.29L58.76 10.29Q58.76 10.23 58.70 10.23L58.70 10.23Q58.66 10.23 58.49 10.35Q58.31 10.46 58.16 10.57L58.16 10.57Q57.65 10.95 57.14 11.50Q56.63 12.05 56.15 12.71Q55.66 13.37 55.24 14.11Q54.81 14.84 54.50 15.58L54.50 15.58Q54.46 15.68 54.38 15.76Q54.29 15.85 54.24 15.85L54.24 15.85Q54.19 15.85 54.12 15.75Q54.04 15.65 53.98 15.51Q53.91 15.36 53.86 15.20Q53.80 15.05 53.80 14.94ZM66.07 9.38L66.07 9.38Q66.01 10.25 65.76 10.87Q65.51 11.49 65.04 11.96Q64.57 12.43 63.90 12.81Q63.22 13.19 62.33 13.54L62.33 13.54Q62.33 13.62 62.32 13.71Q62.31 13.80 62.31 13.90L62.31 13.90Q62.31 14.08 62.34 14.28Q62.37 14.48 62.44 14.64Q62.51 14.81 62.64 14.92Q62.76 15.02 62.96 15.02L62.96 15.02Q63.34 15.02 63.70 14.85Q64.06 14.69 64.39 14.44Q64.72 14.20 65.01 13.91Q65.30 13.62 65.52 13.38L65.52 13.38Q65.66 13.51 65.76 13.62L65.76 13.62Q65.13 14.46 64.38 15.02Q63.63 15.57 62.96 15.72L62.96 15.72Q61.99 15.61 61.45 15.02Q60.91 14.42 60.91 13.58L60.91 13.58Q60.91 13.01 61.08 12.41Q61.24 11.82 61.52 11.26Q61.81 10.71 62.20 10.22Q62.58 9.73 63.02 9.37Q63.46 9.00 63.93 8.79Q64.40 8.58 64.86 8.58L64.86 8.58Q65.51 8.67 66.07 9.38ZM65.10 9.84L65.10 9.84Q64.72 9.90 64.32 10.15Q63.91 10.40 63.55 10.82Q63.20 11.24 62.90 11.80Q62.61 12.36 62.44 13.01L62.44 13.01Q63.56 12.45 64.30 11.63Q65.04 10.81 65.10 9.84ZM75.35 4.83L75.35 4.83Q75.88 4.83 76.45 5.03Q77.03 5.22 77.46 5.53L77.46 5.53Q77.32 6.24 77.20 6.82Q77.08 7.39 76.99 7.86Q76.89 8.33 76.80 8.71Q76.71 9.10 76.62 9.44L76.62 9.44Q76.29 10.70 75.93 11.71Q75.57 12.73 75.17 13.54Q74.77 14.35 74.33 14.98Q73.89 15.61 73.39 16.09L73.39 16.09Q72.90 16.55 72.41 16.84Q71.92 17.14 71.50 17.22L71.50 17.22Q70.94 17.22 70.46 17.09Q69.99 16.97 69.64 16.75Q69.30 16.53 69.11 16.23Q68.92 15.93 68.92 15.57L68.92 15.57Q68.92 15.18 69.12 14.58Q69.31 13.99 69.72 13.17L69.72 13.17Q69.89 13.19 70.11 13.26Q70.34 13.33 70.56 13.43Q70.78 13.52 70.97 13.64Q71.15 13.76 71.23 13.87L71.23 13.87Q70.78 14.34 70.50 14.89Q70.22 15.44 70.22 15.85L70.22 15.85Q70.22 16.09 70.31 16.27Q70.41 16.46 70.63 16.62L70.63 16.62Q71.48 16.30 72.30 15.42Q73.11 14.55 73.74 13.24L73.74 13.24Q74.12 12.47 74.42 11.48Q74.73 10.49 74.95 9.48Q75.17 8.48 75.28 7.57Q75.40 6.65 75.40 6.02L75.40 6.02Q75.40 5.92 75.40 5.75Q75.39 5.57 75.38 5.38Q75.38 5.19 75.36 5.04Q75.35 4.89 75.35 4.83ZM77.07 14.24L77.07 14.24Q77.07 14.11 77.09 13.92Q77.11 13.73 77.17 13.42Q77.22 13.10 77.32 12.66Q77.41 12.21 77.55 11.58L77.55 11.58Q77.57 11.44 77.67 11.13Q77.77 10.82 77.93 10.48Q78.09 10.14 78.32 9.81Q78.55 9.49 78.88 9.34L78.88 9.34Q79.11 9.39 79.51 9.63Q79.90 9.86 80.18 10.26L80.18 10.26Q79.86 10.63 79.64 10.99Q79.42 11.35 79.25 11.75Q79.07 12.14 78.93 12.56Q78.78 12.98 78.60 13.44L78.60 13.44Q78.44 13.83 78.32 14.25Q78.19 14.66 78.18 14.97L78.18 14.97Q78.18 15.22 78.17 15.32Q78.16 15.43 78.09 15.43L78.09 15.43Q78.04 15.43 77.87 15.36Q77.70 15.29 77.53 15.14Q77.35 14.99 77.21 14.77Q77.07 14.55 77.07 14.24ZM79.74 8.16L79.74 8.16Q79.74 8.08 79.79 7.91L79.79 7.91Q79.72 7.84 79.67 7.70Q79.62 7.56 79.62 7.45L79.62 7.45Q79.62 7.32 79.65 7.11Q79.69 6.89 79.74 6.64Q79.80 6.38 79.88 6.11Q79.97 5.84 80.05 5.61L80.05 5.61Q80.22 5.61 80.47 5.71Q80.71 5.80 80.96 5.94Q81.21 6.09 81.42 6.27Q81.63 6.44 81.75 6.59L81.75 6.59Q81.59 6.75 81.34 7.02Q81.09 7.29 80.85 7.59Q80.61 7.90 80.42 8.16Q80.22 8.43 80.16 8.54L80.16 8.54Q80.00 8.51 79.87 8.39Q79.74 8.27 79.74 8.16ZM82.63 8.39L82.63 8.39Q82.99 8.50 83.31 8.88Q83.64 9.27 83.79 9.73L83.79 9.73Q83.64 10.11 83.31 10.64Q82.99 11.17 82.67 11.72Q82.35 12.28 82.09 12.78Q81.83 13.27 81.79 13.59L81.79 13.59Q82.01 13.36 82.29 13.04Q82.56 12.73 82.82 12.41Q83.08 12.10 83.30 11.84Q83.52 11.58 83.65 11.45L83.65 11.45Q83.92 11.17 84.28 10.80Q84.64 10.43 85.04 10.10Q85.44 9.77 85.85 9.54Q86.25 9.31 86.59 9.31L86.59 9.31Q86.95 9.31 87.20 9.55Q87.44 9.80 87.58 10.07L87.58 10.07Q87.58 10.09 87.48 10.14Q87.37 10.19 87.18 10.42L87.18 10.42Q86.98 10.67 86.74 11.11Q86.49 11.55 86.26 12.06Q86.03 12.57 85.88 13.10Q85.72 13.64 85.72 14.07L85.72 14.07Q85.72 14.42 85.81 14.52Q85.90 14.62 86.07 14.62L86.07 14.62Q86.23 14.62 86.39 14.55Q86.56 14.48 86.66 14.48L86.66 14.48Q86.72 14.50 86.75 14.60Q86.79 14.69 86.79 14.76L86.79 14.76Q86.67 14.85 86.52 14.95Q86.37 15.05 86.20 15.13Q86.03 15.22 85.87 15.27Q85.71 15.33 85.58 15.33L85.58 15.33Q85.18 15.33 84.92 15.21Q84.66 15.09 84.51 14.90Q84.36 14.70 84.31 14.43Q84.25 14.15 84.25 13.85L84.25 13.85Q84.25 13.68 84.28 13.47Q84.31 13.26 84.39 12.97Q84.48 12.68 84.63 12.29Q84.78 11.89 85.02 11.33L85.02 11.33Q84.99 11.33 84.64 11.52Q84.29 11.72 83.89 12.12L83.89 12.12Q83.23 12.75 82.71 13.37Q82.18 13.99 81.63 14.74L81.63 14.74Q81.33 15.18 81.10 15.48Q80.86 15.78 80.70 15.88L80.70 15.88Q80.40 15.71 80.26 15.41Q80.12 15.11 80.05 14.78L80.05 14.78Q80.05 14.52 80.13 14.11Q80.21 13.71 80.34 13.21Q80.47 12.71 80.67 12.17Q80.86 11.62 81.10 11.07L81.10 11.07Q81.63 9.84 82.08 9.14Q82.52 8.44 82.63 8.39ZM85.09 19.35L85.09 19.35Q85.09 19.26 85.15 19.19Q85.20 19.12 85.27 19.05L85.27 19.05Q85.44 19.21 85.56 19.29Q85.68 19.38 85.79 19.43Q85.89 19.49 86.00 19.50Q86.11 19.52 86.27 19.52L86.27 19.52Q87.00 19.52 87.65 19.13Q88.31 18.75 88.89 18.02Q89.47 17.29 89.95 16.24Q90.43 15.19 90.79 13.86L90.79 13.86Q90.62 14.03 90.38 14.23Q90.13 14.43 89.87 14.62Q89.60 14.80 89.34 14.95Q89.08 15.11 88.90 15.18L88.90 15.18Q88.66 15.13 88.46 14.97Q88.26 14.81 88.10 14.57Q87.95 14.34 87.86 14.04Q87.78 13.73 87.78 13.40L87.78 13.40Q87.78 12.85 87.98 12.28Q88.19 11.70 88.52 11.15Q88.86 10.60 89.31 10.11Q89.77 9.62 90.28 9.25Q90.79 8.89 91.32 8.67Q91.84 8.46 92.34 8.46L92.34 8.46Q92.83 8.46 93.08 8.66Q93.32 8.86 93.44 9.35L93.44 9.35Q93.28 9.27 93.04 9.27L93.04 9.27Q92.71 9.27 92.27 9.53Q91.83 9.80 91.37 10.23Q90.92 10.65 90.47 11.21Q90.02 11.76 89.68 12.33Q89.33 12.91 89.12 13.45Q88.90 14 88.90 14.43L88.90 14.43Q88.90 14.53 88.91 14.55Q88.93 14.57 88.96 14.57L88.96 14.57Q89.08 14.57 89.30 14.43Q89.52 14.29 89.79 14.08Q90.06 13.86 90.36 13.57Q90.65 13.29 90.92 12.99L90.92 12.99Q91.52 12.32 92.02 11.49Q92.51 10.65 92.81 9.87L92.81 9.87Q93.18 9.90 93.48 10.00Q93.77 10.09 93.88 10.21L93.88 10.21Q93.41 11.30 93.12 12.04Q92.83 12.78 92.62 13.36L92.62 13.36Q92.25 14.36 91.92 15.20Q91.59 16.03 91.25 16.74Q90.90 17.44 90.50 18.05Q90.10 18.66 89.60 19.22L89.60 19.22Q89.36 19.49 89.06 19.69Q88.76 19.89 88.45 20.03Q88.13 20.17 87.83 20.24Q87.53 20.31 87.28 20.31L87.28 20.31Q86.94 20.31 86.59 20.24Q86.24 20.16 85.94 20.03Q85.64 19.89 85.41 19.72Q85.19 19.54 85.09 19.35ZM99.05 9.52L99.05 9.52Q99.19 9.52 99.38 9.57Q99.57 9.62 99.72 9.70Q99.88 9.77 99.98 9.86Q100.09 9.94 100.09 10.01L100.09 10.01Q99.81 10.60 99.57 11.19Q99.33 11.79 99.16 12.33Q98.99 12.88 98.90 13.36Q98.81 13.83 98.81 14.18L98.81 14.18Q98.81 14.57 98.90 14.83Q98.98 15.09 99.18 15.20L99.18 15.20Q99.01 15.32 98.74 15.39Q98.48 15.46 98.27 15.46L98.27 15.46Q97.51 15.46 97.51 14.42L97.51 14.42Q97.51 13.62 98.04 12.24L98.04 12.24Q97.76 12.88 97.40 13.45Q97.03 14.01 96.66 14.45Q96.28 14.88 95.89 15.15Q95.51 15.43 95.19 15.48L95.19 15.48Q94.67 15.46 94.35 14.99Q94.02 14.52 94.02 13.79L94.02 13.79Q94.02 13.01 94.36 12.14Q94.70 11.27 95.22 10.53Q95.75 9.79 96.36 9.29Q96.98 8.79 97.55 8.76L97.55 8.76Q97.69 8.81 97.87 8.93Q98.04 9.06 98.20 9.23Q98.36 9.39 98.48 9.57Q98.59 9.74 98.60 9.87L98.60 9.87Q98.04 9.95 97.45 10.42Q96.85 10.88 96.37 11.53Q95.89 12.18 95.58 12.92Q95.27 13.66 95.27 14.31L95.27 14.31Q95.27 14.57 95.47 14.64L95.47 14.64Q95.87 14.56 96.40 13.95Q96.94 13.34 97.69 12.07L97.69 12.07Q97.83 11.82 98.01 11.51Q98.18 11.20 98.36 10.86Q98.55 10.53 98.72 10.18Q98.90 9.84 99.05 9.52ZM105.63 9.60L105.63 9.60Q105.62 9.87 105.54 10.16Q105.46 10.44 105.35 10.68Q105.24 10.91 105.11 11.06Q104.99 11.21 104.87 11.21L104.87 11.21Q104.72 11.20 104.69 11.00L104.69 11.00Q104.69 10.96 104.73 10.87Q104.76 10.78 104.80 10.67Q104.85 10.56 104.88 10.44Q104.92 10.33 104.92 10.25L104.92 10.25Q104.92 10.05 104.83 9.92Q104.73 9.79 104.58 9.79L104.58 9.79Q104.02 9.79 103.73 10.49Q103.43 11.19 103.43 12.54L103.43 12.54Q103.43 12.68 103.45 12.71L103.45 12.71Q103.74 12.70 103.97 12.69Q104.20 12.68 104.43 12.68L104.43 12.68Q104.44 12.71 104.44 12.80L104.44 12.80Q104.44 12.92 104.38 12.98L104.38 12.98Q104.06 13.05 103.87 13.10Q103.68 13.15 103.59 13.19Q103.49 13.23 103.47 13.28Q103.45 13.33 103.45 13.41L103.45 13.41Q103.45 13.52 103.45 13.64Q103.46 13.75 103.46 13.92L103.46 13.92Q103.46 15.09 102.82 15.81Q102.19 16.52 101.05 16.63L101.05 16.63Q100.86 16.62 100.65 16.52Q100.44 16.42 100.25 16.27Q100.06 16.11 99.92 15.93Q99.78 15.74 99.72 15.54L99.72 15.54Q99.72 15.01 99.95 14.53Q100.17 14.04 100.56 13.67Q100.94 13.30 101.47 13.07Q101.99 12.84 102.61 12.80L102.61 12.80Q102.61 12.45 102.54 12.11Q102.47 11.77 102.39 11.46Q102.31 11.14 102.24 10.84Q102.17 10.54 102.17 10.25L102.17 10.25Q102.17 9.87 102.33 9.50Q102.48 9.13 102.73 8.81Q102.98 8.50 103.32 8.27Q103.66 8.05 104.02 7.97L104.02 7.97Q104.17 8.01 104.43 8.21Q104.69 8.41 104.94 8.67Q105.20 8.92 105.39 9.18Q105.59 9.44 105.63 9.60ZM101.01 15.99L101.01 15.99Q101.35 15.85 101.65 15.58Q101.95 15.32 102.17 14.98Q102.40 14.64 102.53 14.27Q102.66 13.89 102.66 13.52L102.66 13.52Q102.38 13.57 102.05 13.78Q101.71 14 101.42 14.30Q101.12 14.60 100.93 14.92Q100.73 15.25 100.73 15.48L100.73 15.48Q100.73 15.79 101.01 15.99ZM110.47 9.52L110.47 9.52Q110.61 9.52 110.80 9.57Q110.99 9.62 111.15 9.70Q111.30 9.77 111.41 9.86Q111.51 9.94 111.51 10.01L111.51 10.01Q111.23 10.60 110.99 11.19Q110.75 11.79 110.59 12.33Q110.42 12.88 110.33 13.36Q110.24 13.83 110.24 14.18L110.24 14.18Q110.24 14.57 110.32 14.83Q110.40 15.09 110.60 15.20L110.60 15.20Q110.43 15.32 110.17 15.39Q109.90 15.46 109.69 15.46L109.69 15.46Q108.93 15.46 108.93 14.42L108.93 14.42Q108.93 13.62 109.47 12.24L109.47 12.24Q109.19 12.88 108.82 13.45Q108.46 14.01 108.08 14.45Q107.70 14.88 107.32 15.15Q106.93 15.43 106.61 15.48L106.61 15.48Q106.09 15.46 105.77 14.99Q105.45 14.52 105.45 13.79L105.45 13.79Q105.45 13.01 105.78 12.14Q106.12 11.27 106.64 10.53Q107.17 9.79 107.79 9.29Q108.40 8.79 108.98 8.76L108.98 8.76Q109.12 8.81 109.29 8.93Q109.47 9.06 109.63 9.23Q109.79 9.39 109.90 9.57Q110.01 9.74 110.03 9.87L110.03 9.87Q109.47 9.95 108.87 10.42Q108.28 10.88 107.79 11.53Q107.31 12.18 107.00 12.92Q106.69 13.66 106.69 14.31L106.69 14.31Q106.69 14.57 106.89 14.64L106.89 14.64Q107.30 14.56 107.83 13.95Q108.36 13.34 109.12 12.07L109.12 12.07Q109.26 11.82 109.43 11.51Q109.61 11.20 109.79 10.86Q109.97 10.53 110.14 10.18Q110.32 9.84 110.47 9.52Z"></path></g><defs data-v-fde0c5aa=""><!----></defs><g data-v-fde0c5aa="" id="72caa0f8-54a9-4b35-8438-1cc6fedc2de4" stroke="none" fill="#E6767A" transform="matrix(0.42956820519955213,0,0,0.42956820519955213,38.281727179201795,128.50871578513267)"><path d="M50.122 41.041c7.869 0 14.251-6.389 14.251-14.253 0-7.875-6.383-14.25-14.251-14.25-7.868 0-14.249 6.374-14.249 14.25 0 7.864 6.381 14.253 14.249 14.253zM27.8 100V87.354l-12.681 3.529a8.102 8.102 0 01-2.999.577C7.636 91.461 4 87.814 4 83.336c0-1.688.512-3.249 1.387-4.544l20.342-27.893c2.209-3.026 5.293-6.396 11.797-6.396H62.12c6.501 0 9.587 3.371 11.793 6.396l20.341 27.893a8.085 8.085 0 011.39 4.544c0 4.479-3.64 8.125-8.12 8.125a8.094 8.094 0 01-2.999-.577l-12.686-3.529V100H27.8zm22.022-8.835l16.433-5.437-.37-.104c-11.339-3.336-6.924-18.316 4.412-14.972l1.55.521V54.258l-22.025 7.195-22.024-7.195v16.916l1.542-.521c11.345-3.345 15.758 11.636 4.414 14.974l-.363.102 16.431 5.436zM14.6 36.034c.506 1.087 1.725 1.789 3.105 1.789h.003c1.378 0 2.597-.702 3.104-1.789l.351-.752h-6.915l.352.752zM21.483 31.167l-7.524-.001c-.514.001-.827.227-.998.416-.218.24-.337.567-.336.919-.001.377.133.721.376.964.243.244.575.373.96.373h7.522c.787 0 1.336-.549 1.336-1.336-.002-.786-.55-1.335-1.336-1.335zM22.519 27.223h-9.596c-.786.002-1.334.551-1.334 1.337 0 .787.549 1.336 1.334 1.336h9.595c.787 0 1.336-.55 1.336-1.335a1.35 1.35 0 00-.376-.965c-.244-.244-.575-.373-.959-.373zM26.435 3.586A11.997 11.997 0 0017.901.06C11.262.06 5.86 5.461 5.859 12.1c.001 3.25 1.349 6.41 3.657 8.628.597.717.967 1.685 1.092 4.511.041.895.688 1.52 1.658 1.52h.005c.448-.02.848-.198 1.128-.503.278-.303.414-.704.393-1.159-.146-3.276-.667-5.042-1.959-6.554-1.771-1.688-2.786-4.036-2.786-6.442 0-4.882 3.971-8.854 8.851-8.854 4.897 0 8.88 3.973 8.88 8.854 0 2.406-1.016 4.755-2.824 6.484-1.254 1.47-1.774 3.235-1.92 6.514-.041.922.599 1.621 1.519 1.662l.083.002c.891 0 1.541-.626 1.581-1.523.126-2.825.496-3.793 1.053-4.468a12.093 12.093 0 003.696-8.671 11.966 11.966 0 00-3.531-8.515zm-2.802 22.639l.001.008-.001-.008z"></path></g><defs data-v-fde0c5aa=""><!----></defs><g data-v-fde0c5aa="" id="a05a3291-420f-440d-b9ec-79fa67e24411" fill="#FFFFFF" transform="matrix(0.20555812303054566,0,0,0.20555812303054566,92.11656975261168,161.4496976617625)"><path d="M1.22 15.68L1.22 5.88L2.39 5.88L2.39 14.59L7.52 14.59L7.52 15.68L1.22 15.68ZM23.18 12.54L17.58 12.54Q17.63 13.58 18.23 14.21Q18.83 14.84 19.91 14.84L19.91 14.84Q20.40 14.84 20.76 14.73Q21.13 14.62 21.38 14.42Q21.64 14.22 21.80 13.96Q21.97 13.71 22.06 13.41L22.06 13.41L23.10 13.69Q22.81 14.66 22.02 15.27Q21.22 15.88 19.88 15.88L19.88 15.88Q19.14 15.88 18.52 15.62Q17.89 15.36 17.44 14.88Q17.00 14.41 16.74 13.75Q16.49 13.09 16.49 12.29L16.49 12.29L16.49 11.96Q16.49 11.23 16.75 10.60Q17.01 9.97 17.47 9.51Q17.93 9.06 18.56 8.80Q19.18 8.54 19.91 8.54L19.91 8.54Q20.76 8.54 21.38 8.86Q22.01 9.17 22.41 9.63Q22.81 10.09 23.00 10.64Q23.18 11.19 23.18 11.65L23.18 11.65L23.18 12.54ZM19.91 9.58L19.91 9.58Q19.45 9.58 19.05 9.72Q18.65 9.87 18.35 10.14Q18.05 10.40 17.86 10.76Q17.67 11.12 17.61 11.54L17.61 11.54L22.09 11.54Q22.06 11.09 21.88 10.72Q21.69 10.36 21.38 10.11Q21.08 9.86 20.70 9.72Q20.31 9.58 19.91 9.58ZM37.39 14.59L37.39 14.50L37.23 14.50Q36.89 15.20 36.30 15.54Q35.70 15.88 35.04 15.88L35.04 15.88Q34.36 15.88 33.77 15.64Q33.18 15.41 32.74 14.96Q32.30 14.50 32.05 13.85Q31.79 13.19 31.79 12.32L31.79 12.32L31.79 12.10Q31.79 11.24 32.05 10.58Q32.30 9.93 32.74 9.47Q33.18 9.02 33.77 8.78Q34.36 8.54 35.01 8.54L35.01 8.54Q35.73 8.54 36.31 8.86Q36.89 9.17 37.23 9.83L37.23 9.83L37.39 9.83L37.39 8.74L38.49 8.74L38.49 14.25Q38.49 14.67 38.86 14.67L38.86 14.67L39.21 14.67L39.21 15.68L38.47 15.68Q38.00 15.68 37.70 15.37Q37.39 15.06 37.39 14.59L37.39 14.59ZM35.15 14.84L35.15 14.84Q35.64 14.84 36.06 14.66Q36.47 14.48 36.76 14.14Q37.06 13.80 37.23 13.33Q37.39 12.87 37.39 12.29L37.39 12.29L37.39 12.12Q37.39 11.56 37.23 11.09Q37.06 10.63 36.76 10.29Q36.46 9.95 36.04 9.77Q35.63 9.58 35.15 9.58L35.15 9.58Q34.66 9.58 34.26 9.76Q33.85 9.94 33.55 10.27Q33.25 10.60 33.08 11.07Q32.91 11.54 32.91 12.10L32.91 12.10L32.91 12.32Q32.91 13.51 33.54 14.17Q34.16 14.84 35.15 14.84ZM47.53 9.74L47.53 8.74L50.05 8.74L50.05 9.66L50.22 9.66Q50.48 9.09 50.97 8.81Q51.46 8.54 52.09 8.54L52.09 8.54Q53.14 8.54 53.79 9.23Q54.43 9.91 54.47 11.23L54.47 11.23L53.33 11.40Q53.33 10.43 52.86 10.00Q52.40 9.58 51.73 9.58L51.73 9.58Q51.30 9.58 50.98 9.74Q50.67 9.91 50.46 10.21Q50.25 10.50 50.15 10.89Q50.05 11.28 50.05 11.73L50.05 11.73L50.05 14.67L51.81 14.67L51.81 15.68L47.36 15.68L47.36 14.67L48.96 14.67L48.96 9.74L47.53 9.74ZM64.58 12.07L64.58 15.68L63.49 15.68L63.49 8.74L64.58 8.74L64.58 9.91L64.75 9.91Q65.39 8.54 66.99 8.54L66.99 8.54Q68.19 8.54 68.91 9.29Q69.62 10.04 69.62 11.54L69.62 11.54L69.62 15.68L68.53 15.68L68.53 11.76Q68.53 10.67 68.04 10.12Q67.55 9.58 66.71 9.58L66.71 9.58Q65.72 9.58 65.15 10.25Q64.58 10.93 64.58 12.07L64.58 12.07ZM81.21 6.66L81.21 6.66Q81.21 6.26 81.50 5.97Q81.79 5.68 82.19 5.68L82.19 5.68Q82.60 5.68 82.89 5.97Q83.17 6.26 83.17 6.66L83.17 6.66Q83.17 7.07 82.89 7.36Q82.60 7.64 82.19 7.64L82.19 7.64Q81.79 7.64 81.50 7.36Q81.21 7.07 81.21 6.66ZM79.23 15.68L79.23 14.67L81.66 14.67L81.66 9.74L79.48 9.74L79.48 8.74L82.75 8.74L82.75 14.67L85.02 14.67L85.02 15.68L79.23 15.68ZM95.72 12.07L95.72 15.68L94.63 15.68L94.63 8.74L95.72 8.74L95.72 9.91L95.89 9.91Q96.53 8.54 98.13 8.54L98.13 8.54Q99.33 8.54 100.04 9.29Q100.76 10.04 100.76 11.54L100.76 11.54L100.76 15.68L99.67 15.68L99.67 11.76Q99.67 10.67 99.18 10.12Q98.69 9.58 97.85 9.58L97.85 9.58Q96.85 9.58 96.28 10.25Q95.72 10.93 95.72 12.07L95.72 12.07ZM115.47 17.05L115.47 14.62L115.30 14.62Q114.97 15.25 114.39 15.56Q113.81 15.88 113.12 15.88L113.12 15.88Q112.42 15.88 111.80 15.64Q111.19 15.40 110.72 14.95Q110.25 14.50 109.98 13.84Q109.70 13.17 109.70 12.32L109.70 12.32L109.70 12.10Q109.70 11.26 109.98 10.59Q110.26 9.93 110.73 9.47Q111.19 9.02 111.80 8.78Q112.42 8.54 113.09 8.54L113.09 8.54Q113.85 8.54 114.41 8.87Q114.98 9.20 115.30 9.83L115.30 9.83L115.47 9.83L115.47 8.74L116.56 8.74L116.56 17.39Q116.56 17.86 116.26 18.17Q115.96 18.48 115.49 18.48L115.49 18.48L110.96 18.48L110.96 17.47L115.09 17.47Q115.47 17.47 115.47 17.05L115.47 17.05ZM113.15 14.84L113.15 14.84Q113.64 14.84 114.06 14.66Q114.48 14.48 114.79 14.14Q115.11 13.80 115.29 13.33Q115.47 12.87 115.47 12.29L115.47 12.29L115.47 12.12Q115.47 11.56 115.29 11.09Q115.11 10.63 114.79 10.29Q114.48 9.95 114.05 9.77Q113.62 9.58 113.15 9.58L113.15 9.58Q112.66 9.58 112.23 9.76Q111.80 9.94 111.49 10.28Q111.17 10.61 111.00 11.07Q110.82 11.54 110.82 12.10L110.82 12.10L110.82 12.32Q110.82 12.91 111.00 13.37Q111.17 13.83 111.49 14.16Q111.80 14.49 112.22 14.66Q112.64 14.84 113.15 14.84ZM142.42 12.07L142.42 15.68L141.33 15.68L141.33 8.74L142.42 8.74L142.42 9.91L142.59 9.91Q143.23 8.54 144.83 8.54L144.83 8.54Q146.03 8.54 146.75 9.29Q147.46 10.04 147.46 11.54L147.46 11.54L147.46 15.68L146.37 15.68L146.37 11.76Q146.37 10.67 145.88 10.12Q145.39 9.58 144.55 9.58L144.55 9.58Q143.56 9.58 142.99 10.25Q142.42 10.93 142.42 12.07L142.42 12.07ZM163.30 12.54L157.70 12.54Q157.74 13.58 158.34 14.21Q158.94 14.84 160.02 14.84L160.02 14.84Q160.51 14.84 160.87 14.73Q161.24 14.62 161.50 14.42Q161.76 14.22 161.92 13.96Q162.08 13.71 162.18 13.41L162.18 13.41L163.21 13.69Q162.92 14.66 162.13 15.27Q161.34 15.88 159.99 15.88L159.99 15.88Q159.25 15.88 158.63 15.62Q158.00 15.36 157.56 14.88Q157.11 14.41 156.86 13.75Q156.60 13.09 156.60 12.29L156.60 12.29L156.60 11.96Q156.60 11.23 156.86 10.60Q157.12 9.97 157.58 9.51Q158.05 9.06 158.67 8.80Q159.29 8.54 160.02 8.54L160.02 8.54Q160.87 8.54 161.50 8.86Q162.12 9.17 162.52 9.63Q162.92 10.09 163.11 10.64Q163.30 11.19 163.30 11.65L163.30 11.65L163.30 12.54ZM160.02 9.58L160.02 9.58Q159.56 9.58 159.16 9.72Q158.76 9.87 158.46 10.14Q158.16 10.40 157.97 10.76Q157.78 11.12 157.72 11.54L157.72 11.54L162.20 11.54Q162.18 11.09 161.99 10.72Q161.80 10.36 161.50 10.11Q161.20 9.86 160.81 9.72Q160.43 9.58 160.02 9.58ZM179.02 8.74L176.60 15.68L174.44 15.68L172.02 8.74L173.31 8.74L175.43 15.18L175.60 15.18L177.73 8.74L179.02 8.74ZM194.43 12.54L188.83 12.54Q188.87 13.58 189.48 14.21Q190.08 14.84 191.16 14.84L191.16 14.84Q191.65 14.84 192.01 14.73Q192.37 14.62 192.63 14.42Q192.89 14.22 193.05 13.96Q193.21 13.71 193.31 13.41L193.31 13.41L194.35 13.69Q194.05 14.66 193.26 15.27Q192.47 15.88 191.13 15.88L191.13 15.88Q190.39 15.88 189.76 15.62Q189.14 15.36 188.69 14.88Q188.24 14.41 187.99 13.75Q187.74 13.09 187.74 12.29L187.74 12.29L187.74 11.96Q187.74 11.23 188.00 10.60Q188.26 9.97 188.72 9.51Q189.18 9.06 189.81 8.80Q190.43 8.54 191.16 8.54L191.16 8.54Q192.01 8.54 192.63 8.86Q193.26 9.17 193.66 9.63Q194.05 10.09 194.24 10.64Q194.43 11.19 194.43 11.65L194.43 11.65L194.43 12.54ZM191.16 9.58L191.16 9.58Q190.69 9.58 190.30 9.72Q189.90 9.87 189.60 10.14Q189.29 10.40 189.11 10.76Q188.92 11.12 188.86 11.54L188.86 11.54L193.34 11.54Q193.31 11.09 193.12 10.72Q192.93 10.36 192.63 10.11Q192.33 9.86 191.95 9.72Q191.56 9.58 191.16 9.58ZM203.21 9.74L203.21 8.74L205.73 8.74L205.73 9.66L205.90 9.66Q206.16 9.09 206.65 8.81Q207.14 8.54 207.77 8.54L207.77 8.54Q208.82 8.54 209.47 9.23Q210.11 9.91 210.15 11.23L210.15 11.23L209.01 11.40Q209.01 10.43 208.54 10.00Q208.08 9.58 207.41 9.58L207.41 9.58Q206.98 9.58 206.66 9.74Q206.35 9.91 206.14 10.21Q205.93 10.50 205.83 10.89Q205.73 11.28 205.73 11.73L205.73 11.73L205.73 14.67L207.49 14.67L207.49 15.68L203.04 15.68L203.04 14.67L204.64 14.67L204.64 9.74L203.21 9.74ZM241.14 12.54L235.54 12.54Q235.58 13.58 236.18 14.21Q236.78 14.84 237.86 14.84L237.86 14.84Q238.35 14.84 238.71 14.73Q239.08 14.62 239.34 14.42Q239.60 14.22 239.76 13.96Q239.92 13.71 240.02 13.41L240.02 13.41L241.05 13.69Q240.76 14.66 239.97 15.27Q239.18 15.88 237.83 15.88L237.83 15.88Q237.09 15.88 236.47 15.62Q235.84 15.36 235.40 14.88Q234.95 14.41 234.70 13.75Q234.44 13.09 234.44 12.29L234.44 12.29L234.44 11.96Q234.44 11.23 234.70 10.60Q234.96 9.97 235.42 9.51Q235.89 9.06 236.51 8.80Q237.13 8.54 237.86 8.54L237.86 8.54Q238.71 8.54 239.34 8.86Q239.96 9.17 240.36 9.63Q240.76 10.09 240.95 10.64Q241.14 11.19 241.14 11.65L241.14 11.65L241.14 12.54ZM237.86 9.58L237.86 9.58Q237.40 9.58 237.00 9.72Q236.60 9.87 236.30 10.14Q236.00 10.40 235.81 10.76Q235.62 11.12 235.56 11.54L235.56 11.54L240.04 11.54Q240.02 11.09 239.83 10.72Q239.64 10.36 239.34 10.11Q239.04 9.86 238.65 9.72Q238.27 9.58 237.86 9.58ZM253.50 11.62L255.25 8.74L256.49 8.74L254.45 12.04L254.45 12.21L256.66 15.68L255.39 15.68L253.50 12.63L253.25 12.63L251.36 15.68L250.08 15.68L252.29 12.21L252.29 12.04L250.25 8.74L251.50 8.74L253.25 11.62L253.50 11.62ZM266.97 12.07L266.97 15.68L265.87 15.68L265.87 5.88L266.97 5.88L266.97 10.00L267.13 10.00Q267.46 9.32 268.04 8.93Q268.62 8.54 269.46 8.54L269.46 8.54Q270.59 8.54 271.30 9.29Q272.01 10.04 272.01 11.54L272.01 11.54L272.01 15.68L270.91 15.68L270.91 11.76Q270.91 10.67 270.42 10.12Q269.93 9.58 269.09 9.58L269.09 9.58Q268.10 9.58 267.53 10.25Q266.97 10.93 266.97 12.07L266.97 12.07ZM286.48 14.59L286.48 14.50L286.31 14.50Q285.98 15.20 285.38 15.54Q284.79 15.88 284.13 15.88L284.13 15.88Q283.44 15.88 282.86 15.64Q282.27 15.41 281.83 14.96Q281.39 14.50 281.13 13.85Q280.88 13.19 280.88 12.32L280.88 12.32L280.88 12.10Q280.88 11.24 281.13 10.58Q281.39 9.93 281.83 9.47Q282.27 9.02 282.86 8.78Q283.44 8.54 284.10 8.54L284.10 8.54Q284.82 8.54 285.40 8.86Q285.98 9.17 286.31 9.83L286.31 9.83L286.48 9.83L286.48 8.74L287.57 8.74L287.57 14.25Q287.57 14.67 287.95 14.67L287.95 14.67L288.30 14.67L288.30 15.68L287.56 15.68Q287.08 15.68 286.78 15.37Q286.48 15.06 286.48 14.59L286.48 14.59ZM284.24 14.84L284.24 14.84Q284.73 14.84 285.15 14.66Q285.56 14.48 285.85 14.14Q286.15 13.80 286.31 13.33Q286.48 12.87 286.48 12.29L286.48 12.29L286.48 12.12Q286.48 11.56 286.31 11.09Q286.15 10.63 285.85 10.29Q285.54 9.95 285.13 9.77Q284.72 9.58 284.24 9.58L284.24 9.58Q283.75 9.58 283.35 9.76Q282.94 9.94 282.64 10.27Q282.34 10.60 282.17 11.07Q282.00 11.54 282.00 12.10L282.00 12.10L282.00 12.32Q282.00 13.51 282.63 14.17Q283.25 14.84 284.24 14.84ZM301.97 12.35L301.97 8.74L303.06 8.74L303.06 15.68L301.97 15.68L301.97 14.42L301.80 14.42Q301.46 15.09 300.92 15.48Q300.37 15.88 299.53 15.88L299.53 15.88Q298.96 15.88 298.47 15.69Q297.99 15.50 297.65 15.12Q297.30 14.74 297.12 14.18Q296.93 13.62 296.93 12.88L296.93 12.88L296.93 8.74L298.02 8.74L298.02 12.74Q298.02 13.83 298.47 14.34Q298.91 14.84 299.84 14.84L299.84 14.84Q300.83 14.84 301.40 14.16Q301.97 13.48 301.97 12.35L301.97 12.35ZM314.02 10.53L314.02 10.53Q314.02 11.03 314.45 11.30Q314.87 11.56 316.01 11.65L316.01 11.65Q317.23 11.75 317.86 12.23Q318.50 12.71 318.50 13.64L318.50 13.64L318.50 13.72Q318.50 14.22 318.30 14.62Q318.09 15.02 317.74 15.30Q317.38 15.58 316.87 15.73Q316.36 15.88 315.76 15.88L315.76 15.88Q314.94 15.88 314.36 15.66Q313.78 15.44 313.40 15.08Q313.01 14.73 312.82 14.27Q312.62 13.82 312.59 13.36L312.59 13.36L313.63 13.10Q313.70 13.90 314.24 14.38Q314.79 14.87 315.70 14.87L315.70 14.87Q316.47 14.87 316.94 14.57Q317.41 14.27 317.41 13.72L317.41 13.72Q317.41 13.13 316.95 12.88Q316.48 12.63 315.45 12.56L315.45 12.56Q314.24 12.47 313.60 12.00Q312.96 11.52 312.96 10.61L312.96 10.61L312.96 10.53Q312.96 10.04 313.17 9.67Q313.38 9.30 313.73 9.04Q314.09 8.79 314.54 8.67Q314.99 8.54 315.48 8.54L315.48 8.54Q316.16 8.54 316.68 8.73Q317.20 8.92 317.55 9.22Q317.90 9.52 318.09 9.91Q318.28 10.30 318.33 10.70L318.33 10.70L317.30 10.95Q317.23 10.28 316.76 9.90Q316.29 9.52 315.53 9.52L315.53 9.52Q315.24 9.52 314.97 9.58Q314.69 9.65 314.48 9.77Q314.27 9.90 314.15 10.09Q314.02 10.28 314.02 10.53ZM327.91 9.74L327.91 8.74L330.09 8.74L330.09 5.88L331.18 5.88L331.18 8.74L333.87 8.74L333.87 9.74L331.18 9.74L331.18 14.25Q331.18 14.67 331.56 14.67L331.56 14.67L333.54 14.67L333.54 15.68L331.17 15.68Q330.69 15.68 330.39 15.37Q330.09 15.06 330.09 14.59L330.09 14.59L330.09 9.74L327.91 9.74ZM345.16 10.53L345.16 10.53Q345.16 11.03 345.58 11.30Q346.01 11.56 347.14 11.65L347.14 11.65Q348.36 11.75 349.00 12.23Q349.64 12.71 349.64 13.64L349.64 13.64L349.64 13.72Q349.64 14.22 349.43 14.62Q349.23 15.02 348.87 15.30Q348.52 15.58 348.00 15.73Q347.49 15.88 346.89 15.88L346.89 15.88Q346.08 15.88 345.50 15.66Q344.92 15.44 344.53 15.08Q344.15 14.73 343.95 14.27Q343.76 13.82 343.73 13.36L343.73 13.36L344.76 13.10Q344.83 13.90 345.38 14.38Q345.93 14.87 346.84 14.87L346.84 14.87Q347.61 14.87 348.07 14.57Q348.54 14.27 348.54 13.72L348.54 13.72Q348.54 13.13 348.08 12.88Q347.62 12.63 346.58 12.56L346.58 12.56Q345.38 12.47 344.74 12.00Q344.09 11.52 344.09 10.61L344.09 10.61L344.09 10.53Q344.09 10.04 344.30 9.67Q344.51 9.30 344.87 9.04Q345.23 8.79 345.67 8.67Q346.12 8.54 346.61 8.54L346.61 8.54Q347.30 8.54 347.82 8.73Q348.33 8.92 348.68 9.22Q349.03 9.52 349.22 9.91Q349.41 10.30 349.47 10.70L349.47 10.70L348.43 10.95Q348.36 10.28 347.89 9.90Q347.42 9.52 346.67 9.52L346.67 9.52Q346.37 9.52 346.10 9.58Q345.83 9.65 345.62 9.77Q345.41 9.90 345.28 10.09Q345.16 10.28 345.16 10.53ZM374.61 9.74L374.61 8.74L376.80 8.74L376.80 5.88L377.89 5.88L377.89 8.74L380.58 8.74L380.58 9.74L377.89 9.74L377.89 14.25Q377.89 14.67 378.27 14.67L378.27 14.67L380.24 14.67L380.24 15.68L377.87 15.68Q377.40 15.68 377.10 15.37Q376.80 15.06 376.80 14.59L376.80 14.59L376.80 9.74L374.61 9.74ZM391.51 12.07L391.51 15.68L390.42 15.68L390.42 5.88L391.51 5.88L391.51 10.00L391.68 10.00Q392.00 9.32 392.58 8.93Q393.16 8.54 394.00 8.54L394.00 8.54Q395.14 8.54 395.84 9.29Q396.55 10.04 396.55 11.54L396.55 11.54L396.55 15.68L395.46 15.68L395.46 11.76Q395.46 10.67 394.97 10.12Q394.48 9.58 393.64 9.58L393.64 9.58Q392.64 9.58 392.08 10.25Q391.51 10.93 391.51 12.07L391.51 12.07ZM412.38 12.54L406.78 12.54Q406.83 13.58 407.43 14.21Q408.03 14.84 409.11 14.84L409.11 14.84Q409.60 14.84 409.96 14.73Q410.33 14.62 410.58 14.42Q410.84 14.22 411.00 13.96Q411.17 13.71 411.26 13.41L411.26 13.41L412.30 13.69Q412.01 14.66 411.21 15.27Q410.42 15.88 409.08 15.88L409.08 15.88Q408.34 15.88 407.71 15.62Q407.09 15.36 406.64 14.88Q406.20 14.41 405.94 13.75Q405.69 13.09 405.69 12.29L405.69 12.29L405.69 11.96Q405.69 11.23 405.95 10.60Q406.21 9.97 406.67 9.51Q407.13 9.06 407.76 8.80Q408.38 8.54 409.11 8.54L409.11 8.54Q409.96 8.54 410.58 8.86Q411.21 9.17 411.61 9.63Q412.01 10.09 412.19 10.64Q412.38 11.19 412.38 11.65L412.38 11.65L412.38 12.54ZM409.11 9.58L409.11 9.58Q408.65 9.58 408.25 9.72Q407.85 9.87 407.55 10.14Q407.25 10.40 407.06 10.76Q406.87 11.12 406.81 11.54L406.81 11.54L411.29 11.54Q411.26 11.09 411.07 10.72Q410.89 10.36 410.58 10.11Q410.28 9.86 409.90 9.72Q409.51 9.58 409.11 9.58ZM443.80 10.33L443.80 15.68L442.71 15.68L442.71 10.70Q442.71 10.21 442.48 9.89Q442.26 9.58 441.77 9.58L441.77 9.58Q441.31 9.58 441.02 9.92Q440.73 10.26 440.73 10.98L440.73 10.98L440.73 15.68L439.64 15.68L439.64 10.64Q439.64 10.18 439.39 9.88Q439.14 9.58 438.72 9.58L438.72 9.58Q438.21 9.58 437.94 9.94Q437.67 10.30 437.67 10.89L437.67 10.89L437.67 15.68L436.58 15.68L436.58 8.74L437.67 8.74L437.67 9.49L437.84 9.49Q438.02 9.00 438.37 8.77Q438.72 8.54 439.19 8.54L439.19 8.54Q439.70 8.54 440.03 8.81Q440.36 9.07 440.48 9.49L440.48 9.49L440.65 9.49Q441.13 8.54 442.16 8.54L442.16 8.54Q442.95 8.54 443.37 9.04Q443.80 9.53 443.80 10.33L443.80 10.33ZM454.85 6.66L454.85 6.66Q454.85 6.26 455.13 5.97Q455.42 5.68 455.83 5.68L455.83 5.68Q456.23 5.68 456.52 5.97Q456.81 6.26 456.81 6.66L456.81 6.66Q456.81 7.07 456.52 7.36Q456.23 7.64 455.83 7.64L455.83 7.64Q455.42 7.64 455.13 7.36Q454.85 7.07 454.85 6.66ZM452.86 15.68L452.86 14.67L455.29 14.67L455.29 9.74L453.11 9.74L453.11 8.74L456.39 8.74L456.39 14.67L458.65 14.67L458.65 15.68L452.86 15.68ZM469.35 12.07L469.35 15.68L468.26 15.68L468.26 8.74L469.35 8.74L469.35 9.91L469.52 9.91Q470.16 8.54 471.76 8.54L471.76 8.54Q472.96 8.54 473.68 9.29Q474.39 10.04 474.39 11.54L474.39 11.54L474.39 15.68L473.30 15.68L473.30 11.76Q473.30 10.67 472.81 10.12Q472.32 9.58 471.48 9.58L471.48 9.58Q470.48 9.58 469.92 10.25Q469.35 10.93 469.35 12.07L469.35 12.07ZM489.20 15.68L489.20 14.62L489.03 14.62Q488.87 14.94 488.61 15.18Q488.35 15.41 488.05 15.57Q487.75 15.72 487.41 15.80Q487.07 15.88 486.77 15.88L486.77 15.88Q486.07 15.88 485.46 15.64Q484.86 15.40 484.41 14.95Q483.95 14.50 483.69 13.84Q483.43 13.17 483.43 12.32L483.43 12.32L483.43 12.10Q483.43 11.26 483.70 10.59Q483.97 9.93 484.41 9.47Q484.86 9.02 485.46 8.78Q486.07 8.54 486.74 8.54L486.74 8.54Q487.45 8.54 488.07 8.86Q488.70 9.17 489.03 9.83L489.03 9.83L489.20 9.83L489.20 5.88L490.29 5.88L490.29 15.68L489.20 15.68ZM486.88 14.84L486.88 14.84Q487.37 14.84 487.79 14.66Q488.21 14.48 488.52 14.14Q488.84 13.80 489.02 13.33Q489.20 12.87 489.20 12.29L489.20 12.29L489.20 12.12Q489.20 11.56 489.02 11.09Q488.84 10.63 488.52 10.29Q488.21 9.95 487.78 9.77Q487.35 9.58 486.88 9.58L486.88 9.58Q486.39 9.58 485.96 9.76Q485.53 9.94 485.22 10.28Q484.90 10.61 484.73 11.07Q484.55 11.54 484.55 12.10L484.55 12.10L484.55 12.32Q484.55 12.91 484.73 13.37Q484.90 13.83 485.22 14.16Q485.53 14.49 485.95 14.66Q486.37 14.84 486.88 14.84ZM501.48 14.90L501.48 14.90Q501.48 14.49 501.77 14.20Q502.05 13.92 502.46 13.92L502.46 13.92Q502.87 13.92 503.15 14.20Q503.44 14.49 503.44 14.90L503.44 14.90Q503.44 15.30 503.15 15.59Q502.87 15.88 502.46 15.88L502.46 15.88Q502.05 15.88 501.77 15.59Q501.48 15.30 501.48 14.90ZM531.50 12.54L531.50 11.54L535.70 11.54L535.70 12.54L531.50 12.54ZM561.67 15.68L561.67 5.88L562.84 5.88L562.84 14.59L567.97 14.59L567.97 15.68L561.67 15.68ZM583.63 12.54L578.03 12.54Q578.07 13.58 578.68 14.21Q579.28 14.84 580.36 14.84L580.36 14.84Q580.85 14.84 581.21 14.73Q581.57 14.62 581.83 14.42Q582.09 14.22 582.25 13.96Q582.41 13.71 582.51 13.41L582.51 13.41L583.55 13.69Q583.25 14.66 582.46 15.27Q581.67 15.88 580.33 15.88L580.33 15.88Q579.59 15.88 578.96 15.62Q578.34 15.36 577.89 14.88Q577.44 14.41 577.19 13.75Q576.94 13.09 576.94 12.29L576.94 12.29L576.94 11.96Q576.94 11.23 577.20 10.60Q577.46 9.97 577.92 9.51Q578.38 9.06 579.00 8.80Q579.63 8.54 580.36 8.54L580.36 8.54Q581.21 8.54 581.83 8.86Q582.46 9.17 582.85 9.63Q583.25 10.09 583.44 10.64Q583.63 11.19 583.63 11.65L583.63 11.65L583.63 12.54ZM580.36 9.58L580.36 9.58Q579.89 9.58 579.49 9.72Q579.10 9.87 578.79 10.14Q578.49 10.40 578.30 10.76Q578.12 11.12 578.06 11.54L578.06 11.54L582.54 11.54Q582.51 11.09 582.32 10.72Q582.13 10.36 581.83 10.11Q581.53 9.86 581.15 9.72Q580.76 9.58 580.36 9.58ZM599.35 12.12L599.35 12.29Q599.35 13.16 599.07 13.82Q598.78 14.49 598.30 14.95Q597.83 15.40 597.19 15.64Q596.55 15.88 595.87 15.88L595.87 15.88Q595.17 15.88 594.54 15.64Q593.91 15.40 593.43 14.95Q592.96 14.49 592.67 13.82Q592.38 13.16 592.38 12.29L592.38 12.29L592.38 12.12Q592.38 11.27 592.67 10.61Q592.96 9.94 593.44 9.48Q593.92 9.02 594.55 8.78Q595.18 8.54 595.87 8.54L595.87 8.54Q596.55 8.54 597.18 8.78Q597.81 9.02 598.30 9.48Q598.78 9.94 599.07 10.61Q599.35 11.27 599.35 12.12L599.35 12.12ZM595.87 14.84L595.87 14.84Q596.37 14.84 596.80 14.66Q597.23 14.49 597.55 14.15Q597.87 13.82 598.05 13.35Q598.23 12.88 598.23 12.29L598.23 12.29L598.23 12.12Q598.23 11.56 598.05 11.09Q597.87 10.63 597.55 10.29Q597.23 9.95 596.79 9.77Q596.36 9.58 595.87 9.58L595.87 9.58Q595.38 9.58 594.94 9.77Q594.51 9.95 594.19 10.29Q593.87 10.63 593.68 11.09Q593.50 11.56 593.50 12.12L593.50 12.12L593.50 12.29Q593.50 12.88 593.68 13.35Q593.87 13.82 594.19 14.15Q594.51 14.49 594.94 14.66Q595.36 14.84 595.87 14.84ZM609.46 12.07L609.46 15.68L608.37 15.68L608.37 8.74L609.46 8.74L609.46 9.91L609.63 9.91Q610.27 8.54 611.87 8.54L611.87 8.54Q613.07 8.54 613.79 9.29Q614.50 10.04 614.50 11.54L614.50 11.54L614.50 15.68L613.41 15.68L613.41 11.76Q613.41 10.67 612.92 10.12Q612.43 9.58 611.59 9.58L611.59 9.58Q610.60 9.58 610.03 10.25Q609.46 10.93 609.46 12.07L609.46 12.07ZM628.98 14.59L628.98 14.50L628.81 14.50Q628.47 15.20 627.88 15.54Q627.28 15.88 626.63 15.88L626.63 15.88Q625.94 15.88 625.35 15.64Q624.76 15.41 624.32 14.96Q623.88 14.50 623.63 13.85Q623.38 13.19 623.38 12.32L623.38 12.32L623.38 12.10Q623.38 11.24 623.63 10.58Q623.88 9.93 624.32 9.47Q624.76 9.02 625.35 8.78Q625.94 8.54 626.60 8.54L626.60 8.54Q627.31 8.54 627.89 8.86Q628.47 9.17 628.81 9.83L628.81 9.83L628.98 9.83L628.98 8.74L630.07 8.74L630.07 14.25Q630.07 14.67 630.45 14.67L630.45 14.67L630.80 14.67L630.80 15.68L630.06 15.68Q629.58 15.68 629.28 15.37Q628.98 15.06 628.98 14.59L628.98 14.59ZM626.74 14.84L626.74 14.84Q627.23 14.84 627.64 14.66Q628.05 14.48 628.35 14.14Q628.64 13.80 628.81 13.33Q628.98 12.87 628.98 12.29L628.98 12.29L628.98 12.12Q628.98 11.56 628.81 11.09Q628.64 10.63 628.34 10.29Q628.04 9.95 627.63 9.77Q627.21 9.58 626.74 9.58L626.74 9.58Q626.25 9.58 625.84 9.76Q625.44 9.94 625.13 10.27Q624.83 10.60 624.67 11.07Q624.50 11.54 624.50 12.10L624.50 12.10L624.50 12.32Q624.50 13.51 625.12 14.17Q625.74 14.84 626.74 14.84ZM639.11 9.74L639.11 8.74L641.63 8.74L641.63 9.66L641.80 9.66Q642.07 9.09 642.56 8.81Q643.05 8.54 643.68 8.54L643.68 8.54Q644.73 8.54 645.37 9.23Q646.02 9.91 646.06 11.23L646.06 11.23L644.91 11.40Q644.91 10.43 644.45 10.00Q643.99 9.58 643.31 9.58L643.31 9.58Q642.88 9.58 642.56 9.74Q642.25 9.91 642.04 10.21Q641.83 10.50 641.73 10.89Q641.63 11.28 641.63 11.73L641.63 11.73L641.63 14.67L643.40 14.67L643.40 15.68L638.95 15.68L638.95 14.67L640.54 14.67L640.54 9.74L639.11 9.74ZM660.45 15.68L660.45 14.62L660.28 14.62Q660.11 14.94 659.85 15.18Q659.60 15.41 659.29 15.57Q658.99 15.72 658.66 15.80Q658.32 15.88 658.01 15.88L658.01 15.88Q657.31 15.88 656.71 15.64Q656.11 15.40 655.65 14.95Q655.20 14.50 654.94 13.84Q654.68 13.17 654.68 12.32L654.68 12.32L654.68 12.10Q654.68 11.26 654.95 10.59Q655.21 9.93 655.66 9.47Q656.11 9.02 656.71 8.78Q657.31 8.54 657.99 8.54L657.99 8.54Q658.70 8.54 659.32 8.86Q659.95 9.17 660.28 9.83L660.28 9.83L660.45 9.83L660.45 5.88L661.54 5.88L661.54 15.68L660.45 15.68ZM658.13 14.84L658.13 14.84Q658.62 14.84 659.04 14.66Q659.46 14.48 659.77 14.14Q660.09 13.80 660.27 13.33Q660.45 12.87 660.45 12.29L660.45 12.29L660.45 12.12Q660.45 11.56 660.27 11.09Q660.09 10.63 659.77 10.29Q659.46 9.95 659.03 9.77Q658.60 9.58 658.13 9.58L658.13 9.58Q657.64 9.58 657.21 9.76Q656.78 9.94 656.47 10.28Q656.15 10.61 655.98 11.07Q655.80 11.54 655.80 12.10L655.80 12.10L655.80 12.32Q655.80 12.91 655.98 13.37Q656.15 13.83 656.47 14.16Q656.78 14.49 657.20 14.66Q657.62 14.84 658.13 14.84ZM677.19 12.12L677.19 12.29Q677.19 13.16 676.91 13.82Q676.62 14.49 676.14 14.95Q675.67 15.40 675.03 15.64Q674.39 15.88 673.71 15.88L673.71 15.88Q673.01 15.88 672.38 15.64Q671.75 15.40 671.27 14.95Q670.80 14.49 670.51 13.82Q670.22 13.16 670.22 12.29L670.22 12.29L670.22 12.12Q670.22 11.27 670.51 10.61Q670.80 9.94 671.28 9.48Q671.76 9.02 672.39 8.78Q673.02 8.54 673.71 8.54L673.71 8.54Q674.39 8.54 675.02 8.78Q675.65 9.02 676.14 9.48Q676.62 9.94 676.91 10.61Q677.19 11.27 677.19 12.12L677.19 12.12ZM673.71 14.84L673.71 14.84Q674.21 14.84 674.64 14.66Q675.07 14.49 675.39 14.15Q675.71 13.82 675.89 13.35Q676.07 12.88 676.07 12.29L676.07 12.29L676.07 12.12Q676.07 11.56 675.89 11.09Q675.71 10.63 675.39 10.29Q675.07 9.95 674.63 9.77Q674.20 9.58 673.71 9.58L673.71 9.58Q673.22 9.58 672.78 9.77Q672.35 9.95 672.03 10.29Q671.71 10.63 671.52 11.09Q671.34 11.56 671.34 12.12L671.34 12.12L671.34 12.29Q671.34 12.88 671.52 13.35Q671.71 13.82 672.03 14.15Q672.35 14.49 672.78 14.66Q673.20 14.84 673.71 14.84ZM707.15 15.68L707.15 14.62L706.99 14.62Q706.82 14.94 706.56 15.18Q706.30 15.41 706.00 15.57Q705.70 15.72 705.36 15.80Q705.03 15.88 704.72 15.88L704.72 15.88Q704.02 15.88 703.42 15.64Q702.81 15.40 702.36 14.95Q701.90 14.50 701.64 13.84Q701.39 13.17 701.39 12.32L701.39 12.32L701.39 12.10Q701.39 11.26 701.65 10.59Q701.92 9.93 702.37 9.47Q702.81 9.02 703.42 8.78Q704.02 8.54 704.69 8.54L704.69 8.54Q705.40 8.54 706.03 8.86Q706.65 9.17 706.99 9.83L706.99 9.83L707.15 9.83L707.15 5.88L708.25 5.88L708.25 15.68L707.15 15.68ZM704.83 14.84L704.83 14.84Q705.32 14.84 705.74 14.66Q706.16 14.48 706.47 14.14Q706.79 13.80 706.97 13.33Q707.15 12.87 707.15 12.29L707.15 12.29L707.15 12.12Q707.15 11.56 706.97 11.09Q706.79 10.63 706.47 10.29Q706.16 9.95 705.73 9.77Q705.31 9.58 704.83 9.58L704.83 9.58Q704.34 9.58 703.91 9.76Q703.49 9.94 703.17 10.28Q702.86 10.61 702.68 11.07Q702.51 11.54 702.51 12.10L702.51 12.10L702.51 12.32Q702.51 12.91 702.68 13.37Q702.86 13.83 703.17 14.16Q703.49 14.49 703.91 14.66Q704.33 14.84 704.83 14.84ZM722.39 14.59L722.39 14.50L722.22 14.50Q721.88 15.20 721.29 15.54Q720.69 15.88 720.03 15.88L720.03 15.88Q719.35 15.88 718.76 15.64Q718.17 15.41 717.73 14.96Q717.29 14.50 717.04 13.85Q716.79 13.19 716.79 12.32L716.79 12.32L716.79 12.10Q716.79 11.24 717.04 10.58Q717.29 9.93 717.73 9.47Q718.17 9.02 718.76 8.78Q719.35 8.54 720.01 8.54L720.01 8.54Q720.72 8.54 721.30 8.86Q721.88 9.17 722.22 9.83L722.22 9.83L722.39 9.83L722.39 8.74L723.48 8.74L723.48 14.25Q723.48 14.67 723.86 14.67L723.86 14.67L724.21 14.67L724.21 15.68L723.46 15.68Q722.99 15.68 722.69 15.37Q722.39 15.06 722.39 14.59L722.39 14.59ZM720.15 14.84L720.15 14.84Q720.64 14.84 721.05 14.66Q721.46 14.48 721.76 14.14Q722.05 13.80 722.22 13.33Q722.39 12.87 722.39 12.29L722.39 12.29L722.39 12.12Q722.39 11.56 722.22 11.09Q722.05 10.63 721.75 10.29Q721.45 9.95 721.03 9.77Q720.62 9.58 720.15 9.58L720.15 9.58Q719.66 9.58 719.25 9.76Q718.84 9.94 718.54 10.27Q718.24 10.60 718.07 11.07Q717.91 11.54 717.91 12.10L717.91 12.10L717.91 12.32Q717.91 13.51 718.53 14.17Q719.15 14.84 720.15 14.84ZM750.41 15.68L747.64 5.88L748.90 5.88L751.46 15.18L751.63 15.18L754.19 5.88L755.45 5.88L752.68 15.68L750.41 15.68ZM766.21 6.66L766.21 6.66Q766.21 6.26 766.49 5.97Q766.78 5.68 767.19 5.68L767.19 5.68Q767.59 5.68 767.88 5.97Q768.17 6.26 768.17 6.66L768.17 6.66Q768.17 7.07 767.88 7.36Q767.59 7.64 767.19 7.64L767.19 7.64Q766.78 7.64 766.49 7.36Q766.21 7.07 766.21 6.66ZM764.22 15.68L764.22 14.67L766.65 14.67L766.65 9.74L764.47 9.74L764.47 8.74L767.75 8.74L767.75 14.67L770.01 14.67L770.01 15.68L764.22 15.68ZM780.71 12.07L780.71 15.68L779.62 15.68L779.62 8.74L780.71 8.74L780.71 9.91L780.88 9.91Q781.52 8.54 783.12 8.54L783.12 8.54Q784.32 8.54 785.04 9.29Q785.75 10.04 785.75 11.54L785.75 11.54L785.75 15.68L784.66 15.68L784.66 11.76Q784.66 10.67 784.17 10.12Q783.68 9.58 782.84 9.58L782.84 9.58Q781.84 9.58 781.28 10.25Q780.71 10.93 780.71 12.07L780.71 12.07ZM800.59 12.96L801.68 13.22Q801.57 13.79 801.30 14.28Q801.02 14.77 800.60 15.13Q800.18 15.48 799.62 15.68Q799.06 15.88 798.38 15.88L798.38 15.88Q797.65 15.88 797.00 15.64Q796.35 15.40 795.86 14.95Q795.37 14.49 795.08 13.83Q794.79 13.17 794.79 12.32L794.79 12.32L794.79 12.15Q794.79 11.31 795.08 10.64Q795.37 9.97 795.86 9.51Q796.35 9.04 797.00 8.79Q797.65 8.54 798.38 8.54L798.38 8.54Q799.04 8.54 799.60 8.74Q800.16 8.93 800.58 9.29Q801.01 9.65 801.28 10.14Q801.56 10.63 801.65 11.20L801.65 11.20L800.56 11.45Q800.52 11.09 800.36 10.74Q800.20 10.40 799.92 10.14Q799.65 9.88 799.26 9.73Q798.87 9.58 798.35 9.58L798.35 9.58Q797.85 9.58 797.40 9.77Q796.96 9.95 796.63 10.30Q796.29 10.64 796.10 11.12Q795.91 11.59 795.91 12.15L795.91 12.15L795.91 12.32Q795.91 12.91 796.10 13.38Q796.29 13.85 796.63 14.17Q796.96 14.49 797.41 14.66Q797.86 14.84 798.38 14.84L798.38 14.84Q798.90 14.84 799.28 14.68Q799.67 14.52 799.94 14.26Q800.21 14 800.37 13.66Q800.53 13.33 800.59 12.96L800.59 12.96ZM812.91 6.66L812.91 6.66Q812.91 6.26 813.20 5.97Q813.48 5.68 813.89 5.68L813.89 5.68Q814.30 5.68 814.58 5.97Q814.87 6.26 814.87 6.66L814.87 6.66Q814.87 7.07 814.58 7.36Q814.30 7.64 813.89 7.64L813.89 7.64Q813.48 7.64 813.20 7.36Q812.91 7.07 812.91 6.66ZM810.92 15.68L810.92 14.67L813.36 14.67L813.36 9.74L811.17 9.74L811.17 8.74L814.45 8.74L814.45 14.67L816.72 14.67L816.72 15.68L810.92 15.68Z"></path></g></svg>